HIERARCHY
ROOT Hips
{
    OFFSET 0.000000 0.000000 0.000000
    CHANNELS 6 Xposition Yposition Zposition Zrotation Xrotation Yrotation
    JOINT Spine
    {
        OFFSET -0.000000 14.517291 0.000000
        CHANNELS 3 Zrotation Xrotation Yrotation
        JOINT Spine1
        {
            OFFSET -0.000000 37.558300 0.000000
            CHANNELS 3 Zrotation Xrotation Yrotation
            JOINT Neck
            {
                OFFSET -0.000000 37.404057 3.400369
                CHANNELS 3 Zrotation Xrotation Yrotation
                JOINT Head
                {
                    OFFSET -0.000000 24.785618 -3.540803
                    CHANNELS 3 Zrotation Xrotation Yrotation
                    End Site
                    {
                        OFFSET -0.000000 35.408028 0.000000
                    }
                }
            }
            JOINT LeftShoulder
            {
                OFFSET 6.992933 33.973492 -0.192664
                CHANNELS 3 Zrotation Xrotation Yrotation
                JOINT LeftArm
                {
                    OFFSET 21.527611 0.000000 0.000000
                    CHANNELS 3 Zrotation Xrotation Yrotation
                    JOINT LeftForeArm
                    {
                        OFFSET 56.353916 0.000000 0.000000
                        CHANNELS 3 Zrotation Xrotation Yrotation
                        JOINT LeftHand
                        {
                            OFFSET 47.774071 0.000000 0.000000
                            CHANNELS 3 Zrotation Xrotation Yrotation
                            End Site
                            {
                                OFFSET 26.556021 0.000000 0.000000
                            }
                        }
                    }
                }
            }
            JOINT RightShoulder
            {
                OFFSET -7.065357 33.973492 -0.192664
                CHANNELS 3 Zrotation Xrotation Yrotation
                JOINT RightArm
                {
                    OFFSET -21.527611 0.000000 0.000000
                    CHANNELS 3 Zrotation Xrotation Yrotation
                    JOINT RightForeArm
                    {
                        OFFSET -56.353916 0.000000 0.000000
                        CHANNELS 3 Zrotation Xrotation Yrotation
                        JOINT RightHand
                        {
                            OFFSET -47.774071 0.000000 0.000000
                            CHANNELS 3 Zrotation Xrotation Yrotation
                            End Site
                            {
                                OFFSET -26.556021 0.000000 0.000000
                            }
                        }
                    }
                }
            }
        }
    }
    JOINT LeftUpLeg
    {
        OFFSET 17.704014 0.000000 0.000000
        CHANNELS 3 Zrotation Xrotation Yrotation
        JOINT LeftLeg
        {
            OFFSET -0.000000 -81.181816 0.000000
            CHANNELS 3 Zrotation Xrotation Yrotation
            JOINT LeftFoot
            {
                OFFSET -0.000000 -62.821102 0.000000
                CHANNELS 3 Zrotation Xrotation Yrotation
                JOINT LeftToeBase
                {
                    OFFSET -0.000000 -11.507608 26.556021
                    CHANNELS 3 Zrotation Xrotation Yrotation
                    End Site
                    {
                        OFFSET -0.000000 0.000000 7.081605
                    }
                }
            }
        }
    }
    JOINT RightUpLeg
    {
        OFFSET -17.704014 0.000000 0.000000
        CHANNELS 3 Zrotation Xrotation Yrotation
        JOINT RightLeg
        {
            OFFSET -0.000000 -81.181816 0.000000
            CHANNELS 3 Zrotation Xrotation Yrotation
            JOINT RightFoot
            {
                OFFSET -0.000000 -62.821102 0.000000
                CHANNELS 3 Zrotation Xrotation Yrotation
                JOINT RightToeBase
                {
                    OFFSET -0.000000 -11.507608 26.556021
                    CHANNELS 3 Zrotation Xrotation Yrotation
                    End Site
                    {
                        OFFSET -0.000000 0.000000 7.081605
                    }
                }
            }
        }
    }
}
MOTION
Frames:    5
Frame Time:    0.008333
15.174788    155.654495    -107.196442    1.997208    -8.410530    47.027332    -4.222013    1.489215    -5.574992    -2.398601    7.670603    -1.715156    -0.288202    4.836459    -16.565313    19.698679    0.823631    -14.623201    9.317642    7.903903    -27.051216    -21.106525    25.344786    -94.512398    47.255207    -65.595154    -61.042328    -13.322604    -48.321915    -18.334963    -0.557133    8.316289    -3.024980    30.698708    -9.997739    52.009239    -27.567760    -14.729527    61.153530    -11.782055    -2.264237    38.220078    18.278492    -3.366936    -1.320650    -14.316942    36.265984    -18.757282    5.850274    -25.704239    41.475376    0.000000    0.000000    0.000000    -19.089123    -13.151958    -14.499206    13.419991    32.043854    -15.754625    12.005998    3.168120    -21.362278    0.000000    0.000000    0.000000    
15.173430    155.653534    -107.203842    1.999472    -8.401892    47.035770    -4.207924    1.479207    -5.586305    -2.424795    7.680521    -1.716752    -0.291988    4.850409    -16.577080    19.759222    0.808630    -14.624558    9.314060    7.911161    -27.016354    -21.101101    25.386505    -94.472221    47.114719    -65.623970    -61.143852    -13.265367    -48.410583    -18.229736    -0.556498    8.306387    -3.024055    30.699213    -9.986864    51.972832    -27.591763    -14.752642    61.132633    -11.781242    -2.273451    38.167034    18.271883    -3.370002    -1.315210    -14.318600    36.256306    -18.763393    5.866077    -25.690989    41.470333    0.000000    0.000000    0.000000    -19.092873    -13.145009    -14.506189    13.411141    32.023281    -15.737789    11.998280    3.160267    -21.380787    0.000000    0.000000    0.000000    
15.170691    155.651337    -107.210030    1.997558    -8.397550    47.046917    -4.197977    1.472107    -5.600306    -2.426400    7.685417    -1.721129    -0.286443    4.849834    -16.580505    19.769922    0.806478    -14.626963    9.287349    7.912421    -26.980368    -21.126486    25.431799    -94.399368    47.003990    -65.617790    -61.211964    -13.409358    -48.407013    -18.292778    -0.568145    8.304620    -3.030305    30.694456    -9.978307    51.943844    -27.635166    -14.771977    61.100910    -11.748666    -2.262853    38.147327    18.271021    -3.377410    -1.320669    -14.319633    36.254280    -18.766344    5.857062    -25.701401    41.461395    0.000000    0.000000    0.000000    -19.090622    -13.139074    -14.517478    13.401069    32.009796    -15.739991    11.988147    3.151077    -21.369164    0.000000    0.000000    0.000000    
15.167928    155.649582    -107.215652    1.993700    -8.385715    47.063091    -4.193004    1.460314    -5.621750    -2.432853    7.682651    -1.727711    -0.295091    4.864374    -16.588671    19.821762    0.807297    -14.627888    9.275532    7.918147    -26.937517    -21.195415    25.469143    -94.303207    46.886246    -65.571960    -61.281979    -13.640018    -48.323708    -18.468847    -0.580345    8.297226    -3.026679    30.693201    -9.957445    51.907288    -27.670567    -14.792995    61.065933    -11.728347    -2.260753    38.095623    18.263128    -3.395453    -1.303369    -14.299712    36.260895    -18.775570    5.847339    -25.706926    41.438339    0.000000    0.000000    0.000000    -19.095058    -13.139487    -14.539365    13.388690    32.003368    -15.730528    11.981559    3.144445    -21.369122    0.000000    0.000000    0.000000    
15.161377    155.647278    -107.223846    1.986047    -8.379035    47.077080    -4.181652    1.454448    -5.642666    -2.433955    7.672456    -1.734724    -0.290278    4.853895    -16.585415    19.824326    0.832358    -14.628934    9.254388    7.921999    -26.899181    -21.257851    25.502075    -94.199242    46.842339    -65.512566    -61.293083    -13.760004    -48.225994    -18.546274    -0.594796    8.290979    -3.042440    30.724737    -9.965176    51.909859    -27.659508    -14.775548    61.041637    -11.699227    -2.253326    38.142941    18.266926    -3.417321    -1.321995    -14.324113    36.264843    -18.756357    5.875432    -25.696783    41.441505    0.000000    0.000000    0.000000    -19.089228    -13.141892    -14.543673    13.374177    31.990248    -15.726946    11.981724    3.134828    -21.373913    0.000000    0.000000    0.000000    
